<svg xmlns="http://www.w3.org/2000/svg" viewBox="0 0 1600 500">
  <defs>
    <filter id="softShadow" x="-20%" y="-20%" width="140%" height="140%">
      <feGaussianBlur in="SourceAlpha" stdDeviation="3"/>
      <feOffset dx="0" dy="2" result="offsetblur"/>
      <feComponentTransfer>
        <feFuncA type="linear" slope="0.25"/>
      </feComponentTransfer>
      <feMerge>
        <feMergeNode/>
        <feMergeNode in="SourceGraphic"/>
      </feMerge>
    </filter>
  </defs>

  <!-- Icon group (left) -->
  <g transform="translate(40,40)">
    <!-- Carrot body -->
    <path d="M115 120
             C 145 85, 195 80, 235 110
             C 260 130, 265 170, 246 192
             L 150 310
             C 130 335, 95 334, 78 307
             C 45 256, 60 180, 115 120 Z"
          fill="#FF6A00" stroke="#0B0B0F" stroke-width="16" stroke-linejoin="round" filter="url(#softShadow)"/>
    <!-- Leaf left -->
    <path d="M215 78
             C 215 48, 245 38, 263 58
             C 279 38, 309 48, 309 78
             C 309 105, 287 118, 263 104
             C 239 118, 215 105, 215 78 Z"
          fill="#6BCB3B" stroke="#0B0B0F" stroke-width="16" stroke-linejoin="round"/>
    <!-- Leaf right -->
    <path d="M302 95
             C 302 68, 328 58, 344 74
             C 360 58, 386 68, 386 95
             C 386 118, 367 130, 344 118
             C 321 130, 302 118, 302 95 Z"
          fill="#6BCB3B" stroke="#0B0B0F" stroke-width="16" stroke-linejoin="round"/>
  </g>

  <!-- Wordmark (uses system font; editable) -->
  <text x="520" y="320"
        font-family="Inter, Montserrat, Arial, sans-serif"
        font-weight="800"
        font-size="240"
        letter-spacing="3"
        fill="#0B0B0F">CARROT</text>
</svg>